<svg xmlns="http://www.w3.org/2000/svg" viewBox="0 0 220 220" width="100%" height="100%">
    <defs>
        <pattern id="stripes" width="12" height="12" patternTransform="rotate(-45)" patternUnits="userSpaceOnUse">
            <rect width="6" height="12" fill="#ff6600" />
        </pattern>
    </defs>

    <rect x="38" y="38" width="160" height="160" rx="16" fill="url(#stripes)" />

    <rect x="20" y="20" width="160" height="160" rx="16" fill="#0d1522" stroke="#ffffff" stroke-width="6" />

    <g transform="translate(40, 70.48) scale(2.4)" fill="#ffffff">
        <path d="M7.22706e-06 25.632V3.33786e-06H7.20001V25.632H7.22706e-06ZM15.48 25.632V3.33786e-06H22.68V25.632H15.48ZM3.92401 15.552V9.576H18.288V15.552H3.92401ZM26.9297 25.632V3.33786e-06H31.9697L34.1297 5.4V25.632H26.9297ZM44.5697 25.632L29.7017 6.948L31.9697 3.33786e-06L46.8377 18.684L44.5697 25.632ZM44.5697 25.632L42.7697 19.944V3.33786e-06H49.9697V25.632H44.5697Z"/>
    </g>
</svg>
