<svg xmlns="http://www.w3.org/2000/svg" viewBox="0 0 220 220" width="100%" height="100%">
    <defs>
        <pattern id="stripes" width="12" height="12" patternTransform="rotate(-45)" patternUnits="userSpaceOnUse">
            <rect width="6" height="12" fill="#ff6600" />
        </pattern>

        <mask id="hn-mask-outline" maskUnits="userSpaceOnUse" x="-0.518524" y="-0.367981" width="53" height="28" fill="black">
            <rect fill="white" x="-0.518524" y="-0.367981" width="53" height="28"/>
            <path d="M1.00001 26.632V1.00002H8.20001V26.632H1.00001ZM16.48 26.632V1.00002H23.68V26.632H16.48ZM4.92401 16.552V10.576H19.288V16.552H4.92401ZM27.9297 26.632V1.00002H32.9697L35.1297 6.40002V26.632H27.9297ZM45.5697 26.632L30.7017 7.94802L32.9697 1.00002L47.8377 19.684L45.5697 26.632ZM45.5697 26.632L43.7697 20.944V1.00002H50.9697V26.632H45.5697Z"/>
        </mask>
    </defs>

    <rect x="38" y="38" width="160" height="160" rx="16" fill="url(#stripes)" />

    <rect x="20" y="20" width="160" height="160" rx="16" fill="#f8fafc" stroke="#0f172a" stroke-width="6" />

    <g transform="translate(40, 70.38) scale(2.4)" fill="#0f172a">
        <path d="M7.22706e-06 25.632V3.33786e-06H7.20001V25.632H7.22706e-06ZM15.48 25.632V3.33786e-06H22.68V25.632H15.48ZM3.92401 15.552V9.576H18.288V15.552H3.92401ZM26.9297 25.632V3.33786e-06H31.9697L34.1297 5.4V25.632H26.9297ZM44.5697 25.632L29.7017 6.948L31.9697 3.33786e-06L46.8377 18.684L44.5697 25.632ZM44.5697 25.632L42.7697 19.944V3.33786e-06H49.9697V25.632H44.5697Z"/>
    </g>
</svg>
